<svg class="ng-tns-c0-0" xml:space="preserve" xmlns:xlink="http://www.w3.org/1999/xlink" enable-background="new 0 0 250 50" height="50px" version="1.1" viewBox="0 0 250 50" width="250px" x="0px" xmlns="http://www.w3.org/2000/svg" y="0px">
<g class="ng-tns-c0-0" display="none" id="Layer_1">
  <g class="ng-tns-c0-0" display="inline" id="logoGroup">
    <path class="ng-tns-c0-0" d="M-48.213,195.405c-1.616-1.694-3.507-3.053-5.67-4.075c-2.164-1.02-4.489-1.531-6.975-1.531
      c-2.487,0-4.813,0.511-6.976,1.531c-2.163,1.022-4.054,2.381-5.67,4.075c-1.616,1.694-2.898,3.675-3.842,5.945
      c-0.945,2.267-1.418,4.622-1.418,7.064c0,2.492,0.472,4.861,1.418,7.102c0.944,2.244,2.226,4.224,3.842,5.945
      c1.616,1.72,3.507,3.091,5.67,4.111c2.163,1.022,4.489,1.533,6.976,1.533c2.486,0,4.811-0.511,6.975-1.533
      c2.163-1.02,4.054-2.39,5.67-4.111c1.616-1.72,2.897-3.701,3.842-5.945c0.945-2.241,1.419-4.61,1.419-7.102
      c0-2.442-0.473-4.797-1.419-7.064C-45.316,199.08-46.596,197.099-48.213,195.405z" fill="none"></path>
    <polygon class="ng-tns-c0-0" fill="none" points="-42.949,127.598 -48.921,140.161 -37.039,140.161    "></polygon>
    <polygon class="ng-tns-c0-0" fill="none" points="292.336,127.598 286.366,140.161 298.252,140.161    "></polygon>
    <polygon class="ng-tns-c0-0" fill="none" points="148.587,218.057 164.213,218.057 156.438,201.536    "></polygon>
    <path class="ng-tns-c0-0" d="M101.587,121.686c-1.252-0.987-2.634-1.649-4.15-1.988c-1.519-0.341-2.995-0.514-4.432-0.514h-8.473v27.404
      h8.473c1.477,0,2.972-0.173,4.488-0.511c1.517-0.341,2.889-1.015,4.122-2.021c1.23-1.001,2.247-2.395,3.042-4.174
      c0.796-1.782,1.193-4.115,1.193-6.995c0-2.878-0.396-5.223-1.193-7.021C103.863,124.064,102.838,122.673,101.587,121.686z" fill="none"></path>
    <path class="ng-tns-c0-0" d="M326.644,195.405c-1.616-1.694-3.507-3.053-5.67-4.075c-2.164-1.02-4.489-1.531-6.975-1.531
      c-2.487,0-4.812,0.511-6.977,1.531c-2.163,1.022-4.053,2.381-5.67,4.075c-1.616,1.694-2.898,3.675-3.842,5.945
      c-0.944,2.267-1.418,4.622-1.418,7.064c0,2.492,0.473,4.861,1.418,7.102c0.944,2.244,2.226,4.224,3.842,5.945
      c1.617,1.72,3.507,3.091,5.67,4.111c2.164,1.022,4.489,1.533,6.977,1.533c2.486,0,4.811-0.511,6.975-1.533
      c2.163-1.02,4.054-2.39,5.67-4.111c1.616-1.72,2.897-3.701,3.842-5.945c0.945-2.241,1.419-4.61,1.419-7.102
      c0-2.442-0.473-4.797-1.419-7.064C329.54,199.08,328.26,197.099,326.644,195.405z" fill="none"></path>
    <path class="ng-tns-c0-0" d="M50.215,37.782v-61.885h33.781v84.884l33.766,19.496V-24.103v-33.781v-104.167l-33.766,19.496v84.671
      H50.215v-65.16l-33.766,19.496v45.664v17.006c0,5.701,0.434,11.303,1.29,16.775C21.487,0.095,33.239,21.66,50.215,37.782z" fill="#4C494A"></path>
    <path class="ng-tns-c0-0" d="M180.418,52.473c0.29-0.173,0.58-0.347,0.87-0.519c26.787-16.268,45.982-43.824,50.974-76.057h-34.36
      c-4.225,18.669-15.472,35.011-31.899,45.779v-45.779v-33.781v-45.679l33.782,19.511v26.168h33.766v-45.664l-53.71-31.016
      c-0.42-0.26-0.855-0.507-1.289-0.754l-46.316-26.733v104.167v33.781V80.277l45.954-26.528L180.418,52.473z" fill="#1B6A94"></path>
    <polygon class="ng-tns-c0-0" points="233.551,-112.555 233.551,-123.763 125,-186.823 16.449,-123.763 16.449,-112.555 125,-175.258    "></polygon>
    <polygon class="ng-tns-c0-0" fill="#4C494A" points="51.09,-175.258 16.449,-175.258 16.449,-130.73 51.09,-150.419    "></polygon>
    <path class="ng-tns-c0-0" d="M-131.919,195.48c1.594-1.694,3.476-3.053,5.644-4.075c2.169-1.022,4.497-1.533,6.991-1.533
      c1.544,0,3.04,0.225,4.486,0.674c1.445,0.447,2.815,1.072,4.112,1.867c1.296,0.8,2.479,1.721,3.551,2.766
      c1.072,1.046,2.006,2.168,2.804,3.365l9.794-3.962c-1.196-2.144-2.667-4.101-4.411-5.871c-1.745-1.768-3.676-3.289-5.794-4.558
      c-2.119-1.273-4.411-2.255-6.878-2.953c-2.467-0.698-5.022-1.048-7.663-1.048c-3.888,0-7.551,0.748-10.99,2.243
      c-3.44,1.496-6.443,3.526-9.009,6.094c-2.568,2.568-4.598,5.568-6.093,9.009c-1.496,3.439-2.243,7.102-2.243,10.99
      c0,3.886,0.748,7.549,2.243,10.99c1.495,3.439,3.525,6.442,6.093,9.007c2.566,2.57,5.57,4.601,9.009,6.094
      c3.439,1.496,7.102,2.243,10.99,2.243c2.641,0,5.196-0.35,7.663-1.046c2.467-0.698,4.759-1.683,6.878-2.953
      c2.118-1.271,4.049-2.79,5.794-4.56c1.744-1.77,3.215-3.751,4.411-5.945l-9.794-3.961c-0.799,1.195-1.732,2.331-2.804,3.401
      c-1.072,1.072-2.255,2.007-3.551,2.804c-1.297,0.798-2.667,1.42-4.112,1.87c-1.446,0.447-2.941,0.672-4.486,0.672
      c-2.493,0-4.822-0.511-6.991-1.533c-2.168-1.02-4.05-2.378-5.644-4.073c-1.596-1.694-2.867-3.663-3.814-5.907
      c-0.947-2.243-1.42-4.61-1.42-7.102c0-2.442,0.473-4.797,1.42-7.066C-134.786,199.155-133.515,197.175-131.919,195.48z" fill="#1B6A94"></path>
    <path class="ng-tns-c0-0" d="M-40.822,188.341c-2.568-2.568-5.57-4.601-9.009-6.094c-3.439-1.496-7.128-2.243-11.064-2.243
      c-3.887,0-7.55,0.748-10.99,2.243c-3.439,1.493-6.442,3.526-9.008,6.094c-2.568,2.568-4.598,5.582-6.094,9.045
      c-1.496,3.464-2.243,7.14-2.243,11.028c0,3.938,0.748,7.625,2.243,11.066c1.496,3.439,3.526,6.442,6.094,9.007
      c2.566,2.57,5.57,4.601,9.008,6.094c3.44,1.496,7.103,2.243,10.99,2.243c3.937,0,7.626-0.748,11.064-2.243
      c3.44-1.493,6.442-3.524,9.009-6.094c2.566-2.565,4.598-5.568,6.094-9.007c1.496-3.441,2.242-7.128,2.242-11.066
      c0-3.888-0.747-7.563-2.242-11.028C-36.224,193.923-38.256,190.908-40.822,188.341z M-44.371,215.515
      c-0.945,2.244-2.226,4.224-3.842,5.945c-1.616,1.72-3.507,3.091-5.67,4.111c-2.164,1.022-4.489,1.533-6.975,1.533
      c-2.487,0-4.813-0.511-6.976-1.533c-2.163-1.02-4.054-2.39-5.67-4.111c-1.616-1.72-2.898-3.701-3.842-5.945
      c-0.945-2.241-1.418-4.61-1.418-7.102c0-2.442,0.472-4.797,1.418-7.064c0.944-2.269,2.226-4.25,3.842-5.945
      c1.616-1.694,3.507-3.053,5.67-4.075c2.163-1.02,4.489-1.531,6.976-1.531c2.486,0,4.811,0.511,6.975,1.531
      c2.163,1.022,4.054,2.381,5.67,4.075c1.616,1.694,2.897,3.675,3.842,5.945c0.945,2.267,1.419,4.622,1.419,7.064
      C-42.952,210.905-43.426,213.274-44.371,215.515z" fill="#1B6A94"></path>
    <polygon class="ng-tns-c0-0" fill="#1B6A94" points="13.866,214.171 -22.094,181.125 -23.216,181.125 -23.216,235.777 -12.749,235.777 
      -12.749,203.254 23.214,235.777 24.333,235.777 24.333,181.125 13.866,181.125     "></polygon>
    <polygon class="ng-tns-c0-0" fill="#1B6A94" points="31.511,190.321 47.21,190.321 47.21,235.777 57.677,235.777 57.677,190.321 73.302,190.321 
      73.302,181.049 31.511,181.049     "></polygon>
    <path class="ng-tns-c0-0" d="M121.101,210.728c2.072-3.088,3.114-6.7,3.114-10.832c0-2.75-0.46-5.282-1.381-7.596
      c-0.934-2.315-2.217-4.302-3.866-5.973c-1.647-1.673-3.635-2.97-5.949-3.891c-2.326-0.921-4.882-1.38-7.682-1.38H80.476v54.716
      h10.468v-45.449h14.382c1.841,0,3.307,0.353,4.398,1.044c1.091,0.703,1.938,1.55,2.532,2.544c0.594,0.994,0.994,2.047,1.2,3.138
      c0.194,1.103,0.291,2.047,0.291,2.847c0,1.538-0.267,2.885-0.788,4.035c-0.521,1.138-1.175,2.097-1.975,2.873
      c-0.788,0.774-1.697,1.344-2.714,1.72c-1.018,0.374-1.998,0.556-2.944,0.556H94.409c0,0,17.375,23.857,19.567,26.692h12.481
      c-4.483-6.179-9.027-12.308-13.631-18.392C116.279,216.036,119.029,213.818,121.101,210.728z" fill="#1B6A94"></path>
    <path class="ng-tns-c0-0" d="M155.913,181.125l-27.961,54.652h11.364l4.188-8.597h25.792l4.262,8.597h11.364l-27.961-54.652H155.913z
       M148.587,218.057l7.851-16.521l7.775,16.521H148.587z" fill="#1B6A94"></path>
    <path class="ng-tns-c0-0" d="M201.145,195.48c1.594-1.694,3.476-3.053,5.644-4.075c2.169-1.022,4.498-1.533,6.991-1.533
      c1.544,0,3.04,0.225,4.486,0.674c1.445,0.447,2.815,1.072,4.112,1.867c1.296,0.8,2.479,1.721,3.551,2.766
      c1.072,1.046,2.006,2.168,2.804,3.365l9.794-3.962c-1.196-2.144-2.667-4.101-4.412-5.871c-1.744-1.768-3.675-3.289-5.793-4.558
      c-2.119-1.273-4.411-2.255-6.878-2.953c-2.467-0.698-5.022-1.048-7.663-1.048c-3.888,0-7.552,0.748-10.99,2.243
      c-3.44,1.496-6.443,3.526-9.009,6.094c-2.568,2.568-4.598,5.568-6.093,9.009c-1.496,3.439-2.243,7.102-2.243,10.99
      c0,3.886,0.748,7.549,2.243,10.99c1.494,3.439,3.525,6.442,6.093,9.007c2.566,2.57,5.57,4.601,9.009,6.094
      c3.439,1.496,7.102,2.243,10.99,2.243c2.641,0,5.196-0.35,7.663-1.046c2.467-0.698,4.759-1.683,6.878-2.953
      c2.118-1.271,4.049-2.79,5.793-4.56c1.745-1.77,3.216-3.751,4.412-5.945l-9.794-3.961c-0.799,1.195-1.732,2.331-2.804,3.401
      c-1.072,1.072-2.255,2.007-3.551,2.804c-1.297,0.798-2.667,1.42-4.112,1.87c-1.446,0.447-2.942,0.672-4.486,0.672
      c-2.493,0-4.822-0.511-6.991-1.533c-2.168-1.02-4.05-2.378-5.644-4.073c-1.596-1.694-2.867-3.663-3.814-5.907
      c-0.947-2.243-1.42-4.61-1.42-7.102c0-2.442,0.473-4.797,1.42-7.066C198.278,199.155,199.549,197.175,201.145,195.48z" fill="#1B6A94"></path>
    <polygon class="ng-tns-c0-0" fill="#1B6A94" points="240.62,190.321 256.319,190.321 256.319,235.777 266.786,235.777 266.786,190.321 
      282.411,190.321 282.411,181.049 240.62,181.049    "></polygon>
    <path class="ng-tns-c0-0" d="M334.034,188.341c-2.568-2.568-5.57-4.601-9.008-6.094c-3.44-1.496-7.129-2.243-11.064-2.243
      c-3.888,0-7.551,0.748-10.991,2.243c-3.439,1.493-6.442,3.526-9.008,6.094c-2.568,2.568-4.598,5.582-6.094,9.045
      c-1.496,3.464-2.243,7.14-2.243,11.028c0,3.938,0.748,7.625,2.243,11.066c1.496,3.439,3.526,6.442,6.094,9.007
      c2.567,2.57,5.57,4.601,9.008,6.094c3.44,1.496,7.103,2.243,10.991,2.243c3.935,0,7.625-0.748,11.064-2.243
      c3.439-1.493,6.44-3.524,9.008-6.094c2.566-2.565,4.598-5.568,6.094-9.007c1.496-3.441,2.242-7.128,2.242-11.066
      c0-3.888-0.747-7.563-2.242-11.028C338.633,193.923,336.601,190.908,334.034,188.341z M330.486,215.515
      c-0.945,2.244-2.226,4.224-3.842,5.945c-1.616,1.72-3.507,3.091-5.67,4.111c-2.164,1.022-4.489,1.533-6.975,1.533
      c-2.487,0-4.812-0.511-6.977-1.533c-2.163-1.02-4.053-2.39-5.67-4.111c-1.616-1.72-2.898-3.701-3.842-5.945
      c-0.944-2.241-1.418-4.61-1.418-7.102c0-2.442,0.473-4.797,1.418-7.064c0.944-2.269,2.226-4.25,3.842-5.945
      c1.617-1.694,3.507-3.053,5.67-4.075c2.164-1.02,4.489-1.531,6.977-1.531c2.486,0,4.811,0.511,6.975,1.531
      c2.163,1.022,4.054,2.381,5.67,4.075c1.616,1.694,2.897,3.675,3.842,5.945c0.945,2.267,1.419,4.622,1.419,7.064
      C331.905,210.905,331.431,213.274,330.486,215.515z" fill="#1B6A94"></path>
    <path class="ng-tns-c0-0" d="M383.989,217.38c3.453-1.344,6.202-3.562,8.274-6.652c2.072-3.088,3.114-6.7,3.114-10.832
      c0-2.75-0.46-5.282-1.381-7.596c-0.934-2.315-2.217-4.302-3.866-5.973c-1.647-1.673-3.635-2.97-5.949-3.891
      c-2.326-0.921-4.882-1.38-7.682-1.38h-24.862v54.716h10.468v-45.449h14.382c1.841,0,3.307,0.353,4.398,1.044
      c1.091,0.703,1.938,1.55,2.532,2.544c0.594,0.994,0.994,2.047,1.2,3.138c0.194,1.103,0.291,2.047,0.291,2.847
      c0,1.538-0.267,2.885-0.788,4.035c-0.521,1.138-1.175,2.097-1.975,2.873c-0.788,0.774-1.697,1.344-2.714,1.72
      c-1.018,0.374-1.999,0.556-2.944,0.556h-10.917c0,0,17.375,23.857,19.567,26.692h12.481
      C393.136,229.593,388.593,223.464,383.989,217.38z" fill="#1B6A94"></path>
    <polygon class="ng-tns-c0-0" fill="#4C494A" points="-120.349,137.092 -99.826,137.092 -99.826,153.638 -91.869,153.638 -91.869,112.021 
      -99.826,112.021 -99.826,130.042 -120.349,130.042 -120.349,112.021 -128.31,112.021 -128.31,153.638 -120.349,153.638    "></polygon>
    <path class="ng-tns-c0-0" d="M-52.788,147.1h19.616l3.242,6.539h8.64l-21.263-41.56h-0.796l-21.265,41.56h8.646L-52.788,147.1z
       M-42.949,127.598l5.91,12.564h-11.882L-42.949,127.598z" fill="#4C494A"></path>
    <polygon class="ng-tns-c0-0" fill="#4C494A" points="14.213,128.906 41.56,153.638 42.412,153.638 42.412,112.078 34.455,112.078 34.455,137.208 
      7.105,112.078 6.254,112.078 6.254,153.638 14.213,153.638    "></polygon>
    <path class="ng-tns-c0-0" d="M92.979,112.019l-16.408,0.002v41.615h16.408c2.948,0,5.664-0.433,8.143-1.304
      c2.48-0.873,4.647-2.161,6.503-3.864c2.042-1.86,3.583-4.108,4.623-6.74c1.041-2.634,1.564-5.599,1.564-8.898
      c0-3.261-0.523-6.205-1.564-8.839c-1.04-2.639-2.581-4.882-4.623-6.74C103.801,113.765,98.919,112.019,92.979,112.019z
       M104.658,139.882c-0.795,1.78-1.812,3.173-3.042,4.174c-1.233,1.006-2.606,1.68-4.122,2.021
      c-1.516,0.338-3.011,0.511-4.488,0.511h-8.473v-27.404h8.473c1.438,0,2.913,0.173,4.432,0.514c1.516,0.338,2.898,1.001,4.15,1.988
      c1.251,0.987,2.275,2.378,3.071,4.179c0.796,1.799,1.193,4.144,1.193,7.021C105.85,135.767,105.454,138.1,104.658,139.882z" fill="#4C494A"></path>
    <path class="ng-tns-c0-0" d="M160.32,154.659v-15.747c1.061-1.817,2.293-3.855,3.695-6.108c1.401-2.258,2.823-4.555,4.263-6.884
      c1.442-2.331,2.851-4.612,4.237-6.851c1.382-2.236,2.607-4.222,3.67-5.971h-9.271c-0.793,1.328-1.639,2.74-2.53,4.241
      c-0.89,1.491-1.791,3.01-2.699,4.544c-0.912,1.536-1.822,3.062-2.73,4.577c-0.91,1.517-1.783,2.939-2.619,4.267
      c-1.703-2.842-3.447-5.781-5.23-8.815c-1.778-3.031-3.523-5.966-5.231-8.813l-9.264,0.002c2.5,4.319,5.134,8.621,7.901,12.907
      c2.764,4.281,5.384,8.586,7.846,12.904v15.747H160.32z" fill="#4C494A"></path>
    <polygon class="ng-tns-c0-0" fill="#4C494A" points="205.263,113.099 204.752,113.099 204.752,154.659 212.712,154.659 212.712,133.626 
      225.674,149.259 238.696,133.626 238.696,154.659 246.655,154.659 246.655,113.099 246.142,113.099 225.674,137.095     "></polygon>
    <path class="ng-tns-c0-0" d="M282.501,147.1h19.615l3.242,6.536h8.641l-21.267-41.56h-0.793l-21.266,41.56h8.644L282.501,147.1z
       M292.336,127.598l5.916,12.564h-11.886L292.336,127.598z" fill="#4C494A"></path>
    <polygon class="ng-tns-c0-0" fill="#4C494A" points="350.332,128.906 377.682,153.636 378.529,153.636 378.529,112.076 370.57,112.076 370.57,137.208 
      343.225,112.076 342.37,112.076 342.37,153.636 350.332,153.636     "></polygon>
    <rect class="ng-tns-c0-0" height="6.058" width="528.276" x="-139.744" y="164.002"></rect>
  </g>
</g>
<g class="ng-tns-c0-0" id="Layer_2">
  <path class="ng-tns-c0-0" d="M22.214,39.75V29.725h5.472v13.75l5.47,3.158V29.725v-5.472V7.379l-5.47,3.158v13.716h-5.472V13.698
    l-5.47,3.158v7.397v2.755c0,0.923,0.07,1.831,0.209,2.717C17.56,33.645,19.464,37.138,22.214,39.75z" fill="#4C494A"></path>
  <path class="ng-tns-c0-0" d="M43.305,42.13c0.047-0.028,0.094-0.056,0.141-0.084c4.339-2.635,7.449-7.099,8.257-12.32h-5.566
    c-0.684,3.024-2.506,5.671-5.167,7.416v-7.416v-5.472v-7.399l5.472,3.161v4.239h5.47v-7.397l-8.7-5.024
    c-0.068-0.042-0.139-0.082-0.209-0.122L35.5,7.379v16.874v5.472v16.908l7.444-4.297L43.305,42.13z" fill="#1B6A94"></path>
  <polygon class="ng-tns-c0-0" points="51.912,15.397 51.912,13.582 34.328,3.367 16.744,13.582 16.744,15.397 34.328,5.24   "></polygon>
  <polygon class="ng-tns-c0-0" fill="#4C494A" points="22.355,5.24 16.744,5.24 16.744,12.453 22.355,9.264  "></polygon>
</g>
<g class="ng-tns-c0-0" id="Layer_3">
  <path class="ng-tns-c0-0" d="M101.375,31.1c-0.47-0.493-1.02-0.887-1.648-1.185c-0.629-0.297-1.305-0.445-2.028-0.445
    c-0.723,0-1.399,0.149-2.028,0.445c-0.629,0.297-1.178,0.692-1.648,1.185c-0.47,0.493-0.842,1.068-1.117,1.728
    c-0.275,0.659-0.412,1.344-0.412,2.053c0,0.724,0.137,1.413,0.412,2.065c0.274,0.652,0.647,1.228,1.117,1.728
    c0.47,0.5,1.02,0.898,1.648,1.195c0.629,0.297,1.305,0.446,2.028,0.446c0.723,0,1.399-0.149,2.028-0.446
    c0.629-0.297,1.178-0.695,1.648-1.195c0.47-0.5,0.842-1.076,1.117-1.728c0.275-0.651,0.412-1.34,0.412-2.065
    c0-0.71-0.138-1.394-0.412-2.053C102.217,32.168,101.845,31.592,101.375,31.1z" fill="none"></path>
  <polygon class="ng-tns-c0-0" fill="none" points="102.906,11.388 101.17,15.041 104.624,15.041  "></polygon>
  <polygon class="ng-tns-c0-0" fill="none" points="200.373,11.388 198.638,15.041 202.093,15.041   "></polygon>
  <polygon class="ng-tns-c0-0" fill="none" points="158.585,37.685 163.128,37.685 160.867,32.882   "></polygon>
  <path class="ng-tns-c0-0" d="M144.922,9.67c-0.364-0.287-0.766-0.479-1.206-0.578c-0.442-0.099-0.871-0.149-1.289-0.149h-2.463v7.966h2.463
    c0.429,0,0.864-0.05,1.305-0.149c0.441-0.099,0.84-0.295,1.198-0.587c0.358-0.291,0.653-0.696,0.884-1.214
    c0.231-0.518,0.347-1.196,0.347-2.034c0-0.837-0.115-1.518-0.347-2.041C145.584,10.361,145.286,9.957,144.922,9.67z" fill="none"></path>
  <path class="ng-tns-c0-0" d="M210.346,31.1c-0.47-0.493-1.02-0.887-1.648-1.185c-0.629-0.297-1.305-0.445-2.028-0.445
    c-0.723,0-1.399,0.149-2.028,0.445c-0.629,0.297-1.178,0.692-1.648,1.185c-0.47,0.493-0.842,1.068-1.117,1.728
    c-0.275,0.659-0.412,1.344-0.412,2.053c0,0.724,0.138,1.413,0.412,2.065c0.274,0.652,0.647,1.228,1.117,1.728
    c0.47,0.5,1.02,0.898,1.648,1.195c0.629,0.297,1.305,0.446,2.028,0.446c0.723,0,1.399-0.149,2.028-0.446
    c0.629-0.297,1.178-0.695,1.648-1.195c0.47-0.5,0.842-1.076,1.117-1.728c0.275-0.651,0.412-1.34,0.412-2.065
    c0-0.71-0.138-1.394-0.412-2.053C211.188,32.168,210.816,31.592,210.346,31.1z" fill="none"></path>
  <path class="ng-tns-c0-0" d="M77.042,31.122c0.463-0.493,1.011-0.887,1.641-1.185c0.631-0.297,1.307-0.446,2.032-0.446
    c0.449,0,0.884,0.065,1.304,0.196c0.42,0.13,0.818,0.312,1.195,0.543c0.377,0.233,0.721,0.5,1.032,0.804
    c0.312,0.304,0.583,0.63,0.815,0.978l2.847-1.152c-0.348-0.623-0.775-1.192-1.282-1.707c-0.507-0.514-1.069-0.956-1.684-1.325
    c-0.616-0.37-1.282-0.656-1.999-0.859c-0.717-0.203-1.46-0.305-2.228-0.305c-1.13,0-2.195,0.217-3.195,0.652
    c-1,0.435-1.873,1.025-2.619,1.771c-0.746,0.746-1.337,1.619-1.771,2.619c-0.435,1-0.652,2.064-0.652,3.195
    c0,1.13,0.217,2.195,0.652,3.195c0.434,1,1.025,1.873,1.771,2.618c0.746,0.747,1.619,1.337,2.619,1.771
    c1,0.435,2.065,0.652,3.195,0.652c0.768,0,1.51-0.102,2.228-0.304c0.717-0.203,1.383-0.489,1.999-0.859
    c0.616-0.369,1.177-0.811,1.684-1.326c0.507-0.515,0.935-1.09,1.282-1.728l-2.847-1.152c-0.232,0.347-0.504,0.678-0.815,0.989
    c-0.312,0.312-0.656,0.583-1.032,0.815c-0.377,0.232-0.775,0.413-1.195,0.543c-0.42,0.13-0.855,0.195-1.304,0.195
    c-0.725,0-1.402-0.149-2.032-0.446c-0.63-0.297-1.177-0.691-1.641-1.184c-0.464-0.493-0.833-1.065-1.109-1.717
    c-0.275-0.652-0.413-1.34-0.413-2.065c0-0.71,0.138-1.394,0.413-2.054C76.209,32.19,76.578,31.615,77.042,31.122z" fill="#1B6A94"></path>
  <path class="ng-tns-c0-0" d="M103.524,29.046c-0.746-0.746-1.619-1.337-2.619-1.771c-1-0.435-2.072-0.652-3.216-0.652
    c-1.13,0-2.195,0.217-3.195,0.652c-1,0.434-1.873,1.025-2.619,1.771c-0.746,0.746-1.337,1.623-1.771,2.629
    c-0.435,1.007-0.652,2.075-0.652,3.206c0,1.145,0.217,2.217,0.652,3.217c0.435,1,1.025,1.873,1.771,2.618
    c0.746,0.747,1.619,1.337,2.619,1.771c1,0.435,2.065,0.652,3.195,0.652c1.144,0,2.217-0.217,3.216-0.652
    c1-0.434,1.873-1.024,2.619-1.771c0.746-0.746,1.337-1.619,1.771-2.618c0.435-1,0.652-2.072,0.652-3.217
    c0-1.13-0.217-2.199-0.652-3.206C104.861,30.669,104.27,29.793,103.524,29.046z M102.492,36.946
    c-0.275,0.652-0.647,1.228-1.117,1.728c-0.47,0.5-1.02,0.898-1.648,1.195c-0.629,0.297-1.305,0.446-2.028,0.446
    c-0.723,0-1.399-0.149-2.028-0.446c-0.629-0.297-1.178-0.695-1.648-1.195c-0.47-0.5-0.842-1.076-1.117-1.728
    c-0.275-0.651-0.412-1.34-0.412-2.065c0-0.71,0.137-1.394,0.412-2.053c0.274-0.66,0.647-1.236,1.117-1.728
    c0.47-0.493,1.02-0.887,1.648-1.185c0.629-0.297,1.305-0.445,2.028-0.445c0.723,0,1.399,0.149,2.028,0.445
    c0.629,0.297,1.178,0.692,1.648,1.185c0.47,0.493,0.842,1.068,1.117,1.728c0.275,0.659,0.412,1.344,0.412,2.053
    C102.905,35.606,102.767,36.295,102.492,36.946z" fill="#1B6A94"></path>
  <polygon class="ng-tns-c0-0" fill="#1B6A94" points="119.422,36.555 108.968,26.949 108.642,26.949 108.642,42.836 111.685,42.836 111.685,33.382 
    122.139,42.836 122.465,42.836 122.465,26.949 119.422,26.949   "></polygon>
  <polygon class="ng-tns-c0-0" fill="#1B6A94" points="124.551,29.622 129.115,29.622 129.115,42.836 132.158,42.836 132.158,29.622 136.7,29.622 
    136.7,26.927 124.551,26.927   "></polygon>
  <path class="ng-tns-c0-0" d="M150.595,35.554c0.602-0.898,0.905-1.948,0.905-3.149c0-0.799-0.134-1.535-0.401-2.208
    c-0.271-0.673-0.645-1.251-1.124-1.736c-0.479-0.486-1.057-0.863-1.729-1.131c-0.676-0.268-1.419-0.401-2.233-0.401h-7.228v15.906
    h3.043V29.623h4.181c0.535,0,0.961,0.103,1.279,0.303c0.317,0.204,0.563,0.451,0.736,0.74c0.173,0.289,0.289,0.595,0.349,0.912
    c0.056,0.321,0.085,0.595,0.085,0.828c0,0.447-0.078,0.839-0.229,1.173c-0.151,0.331-0.342,0.61-0.574,0.835
    c-0.229,0.225-0.493,0.391-0.789,0.5c-0.296,0.109-0.581,0.162-0.856,0.162h-3.173c0,0,5.051,6.935,5.688,7.759h3.628
    c-1.303-1.796-2.624-3.578-3.963-5.347C149.193,37.097,149.993,36.453,150.595,35.554z" fill="#1B6A94"></path>
  <path class="ng-tns-c0-0" d="M160.715,26.949l-8.128,15.887h3.303l1.217-2.499h7.498l1.239,2.499h3.303l-8.128-15.887H160.715z
     M158.585,37.685l2.282-4.803l2.26,4.803H158.585z" fill="#1B6A94"></path>
  <path class="ng-tns-c0-0" d="M173.864,31.122c0.463-0.493,1.011-0.887,1.641-1.185c0.631-0.297,1.307-0.446,2.032-0.446
    c0.449,0,0.884,0.065,1.304,0.196c0.42,0.13,0.818,0.312,1.195,0.543c0.377,0.233,0.721,0.5,1.032,0.804
    c0.312,0.304,0.583,0.63,0.815,0.978l2.847-1.152c-0.348-0.623-0.775-1.192-1.283-1.707c-0.507-0.514-1.068-0.956-1.684-1.325
    c-0.616-0.37-1.282-0.656-1.999-0.859c-0.717-0.203-1.46-0.305-2.228-0.305c-1.13,0-2.195,0.217-3.195,0.652
    c-1,0.435-1.873,1.025-2.619,1.771c-0.746,0.746-1.337,1.619-1.771,2.619c-0.435,1-0.652,2.064-0.652,3.195
    c0,1.13,0.217,2.195,0.652,3.195c0.434,1,1.025,1.873,1.771,2.618c0.746,0.747,1.619,1.337,2.619,1.771
    c1,0.435,2.065,0.652,3.195,0.652c0.768,0,1.51-0.102,2.228-0.304c0.717-0.203,1.383-0.489,1.999-0.859
    c0.616-0.369,1.177-0.811,1.684-1.326c0.507-0.515,0.935-1.09,1.283-1.728l-2.847-1.152c-0.232,0.347-0.504,0.678-0.815,0.989
    c-0.312,0.312-0.656,0.583-1.032,0.815c-0.377,0.232-0.775,0.413-1.195,0.543c-0.42,0.13-0.855,0.195-1.304,0.195
    c-0.725,0-1.402-0.149-2.032-0.446c-0.63-0.297-1.177-0.691-1.641-1.184c-0.464-0.493-0.833-1.065-1.109-1.717
    c-0.275-0.652-0.413-1.34-0.413-2.065c0-0.71,0.138-1.394,0.413-2.054C173.03,32.19,173.4,31.615,173.864,31.122z" fill="#1B6A94"></path>
  <polygon class="ng-tns-c0-0" fill="#1B6A94" points="185.339,29.622 189.903,29.622 189.903,42.836 192.946,42.836 192.946,29.622 197.488,29.622 
    197.488,26.927 185.339,26.927   "></polygon>
  <path class="ng-tns-c0-0" d="M212.495,29.046c-0.746-0.746-1.619-1.337-2.619-1.771c-1-0.435-2.072-0.652-3.216-0.652
    c-1.13,0-2.195,0.217-3.195,0.652c-1,0.434-1.873,1.025-2.619,1.771c-0.746,0.746-1.337,1.623-1.771,2.629
    c-0.435,1.007-0.652,2.075-0.652,3.206c0,1.145,0.217,2.217,0.652,3.217c0.435,1,1.025,1.873,1.771,2.618
    c0.746,0.747,1.619,1.337,2.619,1.771c1,0.435,2.065,0.652,3.195,0.652c1.144,0,2.217-0.217,3.216-0.652
    c1-0.434,1.872-1.024,2.619-1.771c0.746-0.746,1.337-1.619,1.771-2.618c0.435-1,0.652-2.072,0.652-3.217
    c0-1.13-0.217-2.199-0.652-3.206C213.831,30.669,213.241,29.793,212.495,29.046z M211.463,36.946
    c-0.275,0.652-0.647,1.228-1.117,1.728c-0.47,0.5-1.02,0.898-1.648,1.195c-0.629,0.297-1.305,0.446-2.028,0.446
    c-0.723,0-1.399-0.149-2.028-0.446c-0.629-0.297-1.178-0.695-1.648-1.195c-0.47-0.5-0.842-1.076-1.117-1.728
    c-0.275-0.651-0.412-1.34-0.412-2.065c0-0.71,0.138-1.394,0.412-2.053c0.274-0.66,0.647-1.236,1.117-1.728
    c0.47-0.493,1.02-0.887,1.648-1.185c0.629-0.297,1.305-0.445,2.028-0.445c0.723,0,1.399,0.149,2.028,0.445
    c0.629,0.297,1.178,0.692,1.648,1.185c0.47,0.493,0.842,1.068,1.117,1.728c0.275,0.659,0.412,1.344,0.412,2.053
    C211.876,35.606,211.738,36.295,211.463,36.946z" fill="#1B6A94"></path>
  <path class="ng-tns-c0-0" d="M227.016,37.488c1.004-0.391,1.803-1.035,2.405-1.934c0.602-0.898,0.905-1.948,0.905-3.149
    c0-0.799-0.134-1.535-0.401-2.208c-0.271-0.673-0.645-1.251-1.124-1.736c-0.479-0.486-1.057-0.863-1.729-1.131
    c-0.676-0.268-1.419-0.401-2.233-0.401h-7.227v15.906h3.043V29.623h4.181c0.535,0,0.961,0.103,1.279,0.303
    c0.317,0.204,0.563,0.451,0.736,0.74c0.173,0.289,0.289,0.595,0.349,0.912c0.056,0.321,0.085,0.595,0.085,0.828
    c0,0.447-0.078,0.839-0.229,1.173c-0.151,0.331-0.342,0.61-0.574,0.835c-0.229,0.225-0.493,0.391-0.789,0.5
    c-0.296,0.109-0.581,0.162-0.856,0.162h-3.173c0,0,5.051,6.935,5.688,7.759h3.628C229.676,41.039,228.355,39.257,227.016,37.488z" fill="#1B6A94"></path>
  <polygon class="ng-tns-c0-0" fill="#4C494A" points="80.405,14.148 86.371,14.148 86.371,18.959 88.685,18.959 88.685,6.86 86.371,6.86 86.371,12.099 
    80.405,12.099 80.405,6.86 78.091,6.86 78.091,18.959 80.405,18.959   "></polygon>
  <path class="ng-tns-c0-0" d="M100.045,17.058h5.702l0.942,1.901h2.512l-6.181-12.082h-0.231l-6.182,12.082h2.513L100.045,17.058z
     M102.906,11.388l1.718,3.652h-3.454L102.906,11.388z" fill="#4C494A"></path>
  <polygon class="ng-tns-c0-0" fill="#4C494A" points="119.523,11.769 127.472,18.959 127.72,18.959 127.72,6.877 125.407,6.877 125.407,14.182 
    117.456,6.877 117.209,6.877 117.209,18.959 119.523,18.959   "></polygon>
  <path class="ng-tns-c0-0" d="M142.42,6.86l-4.77,0.001v12.097h4.77c0.857,0,1.647-0.126,2.367-0.379c0.721-0.254,1.351-0.628,1.89-1.123
    c0.594-0.541,1.042-1.194,1.344-1.959c0.303-0.766,0.455-1.628,0.455-2.587c0-0.948-0.152-1.804-0.455-2.569
    c-0.302-0.767-0.75-1.419-1.344-1.959C145.566,7.367,144.147,6.86,142.42,6.86z M145.815,14.96
    c-0.231,0.517-0.527,0.923-0.884,1.214c-0.358,0.292-0.757,0.488-1.198,0.587c-0.441,0.098-0.875,0.149-1.305,0.149h-2.463V8.943
    h2.463c0.418,0,0.847,0.05,1.289,0.149c0.441,0.098,0.842,0.291,1.206,0.578c0.364,0.287,0.661,0.691,0.893,1.215
    c0.231,0.523,0.347,1.205,0.347,2.041C146.162,13.763,146.046,14.442,145.815,14.96z" fill="#4C494A"></path>
  <path class="ng-tns-c0-0" d="M161.996,19.255v-4.578c0.309-0.528,0.667-1.121,1.074-1.776c0.407-0.656,0.821-1.324,1.239-2.001
    c0.419-0.678,0.829-1.341,1.232-1.992c0.402-0.65,0.758-1.227,1.067-1.736h-2.695c-0.23,0.386-0.476,0.797-0.735,1.233
    c-0.259,0.433-0.521,0.875-0.785,1.321c-0.265,0.446-0.53,0.89-0.794,1.33c-0.265,0.441-0.518,0.854-0.761,1.24
    c-0.495-0.826-1.002-1.681-1.52-2.563c-0.517-0.881-1.024-1.734-1.521-2.562l-2.693,0.001c0.727,1.256,1.492,2.506,2.297,3.752
    c0.803,1.244,1.565,2.496,2.281,3.751v4.578H161.996z" fill="#4C494A"></path>
  <polygon class="ng-tns-c0-0" fill="#4C494A" points="175.061,7.174 174.912,7.174 174.912,19.255 177.226,19.255 177.226,13.141 180.994,17.685 
    184.78,13.141 184.78,19.255 187.094,19.255 187.094,7.174 186.944,7.174 180.994,14.149   "></polygon>
  <path class="ng-tns-c0-0" d="M197.514,17.058h5.702l0.942,1.9h2.512l-6.182-12.082h-0.23l-6.182,12.082h2.513L197.514,17.058z
     M200.373,11.388l1.72,3.652h-3.455L200.373,11.388z" fill="#4C494A"></path>
  <polygon class="ng-tns-c0-0" fill="#4C494A" points="217.233,11.769 225.183,18.958 225.429,18.958 225.429,6.876 223.115,6.876 223.115,14.182 
    215.166,6.876 214.918,6.876 214.918,18.958 217.233,18.958   "></polygon>
  <rect class="ng-tns-c0-0" height="1.761" width="153.57" x="74.767" y="21.971"></rect>
</g>
</svg>